<?xml version="1.0" encoding="UTF-8"?>
<!DOCTYPE svg PUBLIC "-//W3C//DTD SVG 1.1//EN" "http://www.w3.org/Graphics/SVG/1.1/DTD/svg11.dtd">
<svg xmlns="http://www.w3.org/2000/svg" version="1.1" width="228px" height="229px" style="shape-rendering:geometricPrecision; text-rendering:geometricPrecision; image-rendering:optimizeQuality; fill-rule:evenodd; clip-rule:evenodd" xmlns:xlink="http://www.w3.org/1999/xlink">
<g><path style="opacity:1" fill="#fcfdfd" d="M -0.5,-0.5 C 28.5,-0.5 57.5,-0.5 86.5,-0.5C 80.1098,3.71039 74.1098,8.54372 68.5,14C 51.5711,16.815 34.5711,19.1484 17.5,21C 9.75661,24.2504 3.75661,29.417 -0.5,36.5C -0.5,24.1667 -0.5,11.8333 -0.5,-0.5 Z"/></g>
<g><path style="opacity:1" fill="#1ba2a2" d="M 86.5,-0.5 C 90.8333,-0.5 95.1667,-0.5 99.5,-0.5C 99.6107,0.117425 99.944,0.617425 100.5,1C 88.7396,2.8786 79.0729,8.3786 71.5,17.5C 57.5765,20.126 43.5765,22.2926 29.5,24C 15.9408,24.5607 7.44082,31.3941 4,44.5C 3.50011,57.4957 3.33344,70.4957 3.5,83.5C 2.16667,82.5 0.833333,81.5 -0.5,80.5C -0.5,65.8333 -0.5,51.1667 -0.5,36.5C 3.75661,29.417 9.75661,24.2504 17.5,21C 34.5711,19.1484 51.5711,16.815 68.5,14C 74.1098,8.54372 80.1098,3.71039 86.5,-0.5 Z"/></g>
<g><path style="opacity:1" fill="#129e9e" d="M 130.5,-0.5 C 133.5,-0.5 136.5,-0.5 139.5,-0.5C 146.501,3.31912 152.835,8.15246 158.5,14C 176.931,16.4867 195.265,19.4867 213.5,23C 220.019,25.6873 224.686,30.1873 227.5,36.5C 227.5,62.5 227.5,88.5 227.5,114.5C 226.167,114.833 224.833,115.167 223.5,115.5C 223.167,115.5 222.833,115.5 222.5,115.5C 223.656,90.9057 223.823,66.239 223,41.5C 222.059,39.2726 220.892,37.2726 219.5,35.5C 216.3,30.8889 211.967,27.7222 206.5,26C 190.575,23.2012 174.575,20.8679 158.5,19C 150.522,11.6723 141.522,5.83896 131.5,1.5C 130.702,1.04311 130.369,0.376442 130.5,-0.5 Z"/></g>
<g><path style="opacity:1" fill="#fcfdfd" d="M 139.5,-0.5 C 168.833,-0.5 198.167,-0.5 227.5,-0.5C 227.5,11.8333 227.5,24.1667 227.5,36.5C 224.686,30.1873 220.019,25.6873 213.5,23C 195.265,19.4867 176.931,16.4867 158.5,14C 152.835,8.15246 146.501,3.31912 139.5,-0.5 Z"/></g>
<g><path style="opacity:1" fill="#296a6b" d="M 86.5,120.5 C 83.1501,120.665 79.8168,120.498 76.5,120C 73.6883,118.451 70.6883,117.618 67.5,117.5C 65.5739,116.514 63.5739,115.514 61.5,114.5C 61.1667,114.5 60.8333,114.5 60.5,114.5C 59.791,113.596 58.791,113.263 57.5,113.5C 57.1583,112.662 56.4916,112.328 55.5,112.5C 44.2415,107.206 32.9081,101.873 21.5,96.5C 20.7095,95.5987 19.7095,94.9321 18.5,94.5C 16.2048,93.5254 14.2048,92.1921 12.5,90.5C 12.3335,80.8276 12.5002,71.1609 13,61.5C 13.0827,55.0582 13.7493,48.7248 15,42.5C 17.3419,39.2456 20.5085,37.4123 24.5,37C 33.7598,35.0451 43.0931,34.0451 52.5,34C 55.4772,35.1455 57.1439,37.3121 57.5,40.5C 52.2793,60.9965 56.4459,79.3299 70,95.5C 76.7611,100.259 82.0944,106.259 86,113.5C 86.4966,115.81 86.6633,118.143 86.5,120.5 Z"/></g>
<g><path style="opacity:1" fill="#286a6b" d="M 211.5,41.5 C 211.5,41.8333 211.5,42.1667 211.5,42.5C 188.201,68.467 164.535,94.1337 140.5,119.5C 141.354,115.417 142.521,111.417 144,107.5C 154.972,98.865 163.306,88.1984 169,75.5C 169.539,72.4715 170.206,69.4715 171,66.5C 171.462,56.4785 171.462,46.4785 171,36.5C 172.333,34.1667 174.333,33.1667 177,33.5C 186.407,35.5375 195.907,37.0375 205.5,38C 207.887,38.5637 209.887,39.7304 211.5,41.5 Z"/></g>
<g><path style="opacity:1" fill="#01787b" d="M 219.5,35.5 C 220.892,37.2726 222.059,39.2726 223,41.5C 223.823,66.239 223.656,90.9057 222.5,115.5C 220.565,116.15 218.565,116.483 216.5,116.5C 215.833,116.5 215.167,116.5 214.5,116.5C 214.687,92.4855 214.187,68.4855 213,44.5C 212.722,43.5842 212.222,42.9175 211.5,42.5C 211.5,42.1667 211.5,41.8333 211.5,41.5C 213.67,40.1618 215.336,38.3284 216.5,36C 217.448,35.5172 218.448,35.3505 219.5,35.5 Z"/></g>
<g><path style="opacity:1" fill="#004f4f" d="M 211.5,42.5 C 212.222,42.9175 212.722,43.5842 213,44.5C 214.187,68.4855 214.687,92.4855 214.5,116.5C 213.209,116.263 212.209,116.596 211.5,117.5C 208.287,117.19 205.287,117.523 202.5,118.5C 198.298,118.183 194.298,118.517 190.5,119.5C 187.167,119.5 183.833,119.5 180.5,119.5C 177.941,119.198 175.607,119.532 173.5,120.5C 170.833,120.5 168.167,120.5 165.5,120.5C 165.167,120.5 164.833,120.5 164.5,120.5C 162.5,120.5 160.5,120.5 158.5,120.5C 153.833,120.5 149.167,120.5 144.5,120.5C 143.167,120.5 141.833,120.5 140.5,120.5C 140.5,120.167 140.5,119.833 140.5,119.5C 164.535,94.1337 188.201,68.467 211.5,42.5 Z"/></g>
<g><path style="opacity:1" fill="#cab00f" d="M -0.5,80.5 C 0.833333,81.5 2.16667,82.5 3.5,83.5C 5.91806,86.5469 8.91806,88.8802 12.5,90.5C 14.2048,92.1921 16.2048,93.5254 18.5,94.5C 18.7214,97.2788 18.388,99.9455 17.5,102.5C 16.603,103.598 15.7697,103.598 15,102.5C 14.6667,100.833 14.3333,99.1667 14,97.5C 13.1134,100.708 11.4468,100.708 9,97.5C 8.53594,91.8252 7.86927,91.4919 7,96.5C 6.64114,93.4557 5.97448,93.1224 5,95.5C 4.01469,93.8251 3.18136,92.1585 2.5,90.5C 1.39939,92.201 0.399394,94.5343 -0.5,97.5C -0.5,91.8333 -0.5,86.1667 -0.5,80.5 Z"/></g>
<g><path style="opacity:1" fill="#685f2a" d="M 2.5,90.5 C 2.5,91.8333 2.5,93.1667 2.5,94.5C 1.53178,96.6074 1.19845,98.9407 1.5,101.5C 0.833333,100.833 0.166667,100.167 -0.5,99.5C -0.5,98.8333 -0.5,98.1667 -0.5,97.5C 0.399394,94.5343 1.39939,92.201 2.5,90.5 Z"/></g>
<g><path style="opacity:1" fill="#cdb514" d="M 2.5,94.5 C 3.05899,97.8434 4.39232,100.843 6.5,103.5C 7.88443,100.867 9.21777,100.867 10.5,103.5C 9.35945,104.425 9.35945,105.259 10.5,106C 9.57869,107.756 8.41202,107.923 7,106.5C 5.97008,106.836 5.47008,107.503 5.5,108.5C 4.16667,107.167 2.83333,105.833 1.5,104.5C 1.5,103.5 1.5,102.5 1.5,101.5C 1.19845,98.9407 1.53178,96.6074 2.5,94.5 Z"/></g>
<g><path style="opacity:1" fill="#958920" d="M 18.5,94.5 C 19.7095,94.9321 20.7095,95.5987 21.5,96.5C 20.8826,96.6107 20.3826,96.944 20,97.5C 19.3586,103.87 18.5252,110.203 17.5,116.5C 16.1667,116.5 14.8333,116.5 13.5,116.5C 13.1667,125.833 12.8333,125.833 12.5,116.5C 11.209,116.737 10.209,116.404 9.5,115.5C 11.1667,115.5 12.8333,115.5 14.5,115.5C 16.3529,111.608 17.3529,107.275 17.5,102.5C 18.388,99.9455 18.7214,97.2788 18.5,94.5 Z"/></g>
<g><path style="opacity:1" fill="#edcd09" d="M 2.5,90.5 C 3.18136,92.1585 4.01469,93.8251 5,95.5C 5.97448,93.1224 6.64114,93.4557 7,96.5C 7.86927,91.4919 8.53594,91.8252 9,97.5C 11.4468,100.708 13.1134,100.708 14,97.5C 14.3333,99.1667 14.6667,100.833 15,102.5C 15.7697,103.598 16.603,103.598 17.5,102.5C 17.3529,107.275 16.3529,111.608 14.5,115.5C 11.681,112.925 8.68095,110.592 5.5,108.5C 5.47008,107.503 5.97008,106.836 7,106.5C 8.41202,107.923 9.57869,107.756 10.5,106C 9.35945,105.259 9.35945,104.425 10.5,103.5C 9.21777,100.867 7.88443,100.867 6.5,103.5C 4.39232,100.843 3.05899,97.8434 2.5,94.5C 2.5,93.1667 2.5,91.8333 2.5,90.5 Z"/></g>
<g><path style="opacity:1" fill="#2c8c8f" d="M 99.5,-0.5 C 109.833,-0.5 120.167,-0.5 130.5,-0.5C 130.369,0.376442 130.702,1.04311 131.5,1.5C 141.522,5.83896 150.522,11.6723 158.5,19C 174.575,20.8679 190.575,23.2012 206.5,26C 211.967,27.7222 216.3,30.8889 219.5,35.5C 218.448,35.3505 217.448,35.5172 216.5,36C 215.336,38.3284 213.67,40.1618 211.5,41.5C 209.887,39.7304 207.887,38.5637 205.5,38C 195.907,37.0375 186.407,35.5375 177,33.5C 174.333,33.1667 172.333,34.1667 171,36.5C 171.462,46.4785 171.462,56.4785 171,66.5C 170.206,69.4715 169.539,72.4715 169,75.5C 163.306,88.1984 154.972,98.865 144,107.5C 142.521,111.417 141.354,115.417 140.5,119.5C 140.5,119.833 140.5,120.167 140.5,120.5C 133.646,120.176 126.979,120.509 120.5,121.5C 119.348,120.375 118.348,120.375 117.5,121.5C 117.167,121.5 116.833,121.5 116.5,121.5C 110.355,120.51 104.022,120.177 97.5,120.5C 96.1667,120.5 94.8333,120.5 93.5,120.5C 93.1667,152.5 92.8333,152.5 92.5,120.5C 90.5,120.5 88.5,120.5 86.5,120.5C 86.6633,118.143 86.4966,115.81 86,113.5C 82.0944,106.259 76.7611,100.259 70,95.5C 56.4459,79.3299 52.2793,60.9965 57.5,40.5C 57.1439,37.3121 55.4772,35.1455 52.5,34C 43.0931,34.0451 33.7598,35.0451 24.5,37C 20.5085,37.4123 17.3419,39.2456 15,42.5C 13.7493,48.7248 13.0827,55.0582 13,61.5C 12.5002,71.1609 12.3335,80.8276 12.5,90.5C 8.91806,88.8802 5.91806,86.5469 3.5,83.5C 3.33344,70.4957 3.50011,57.4957 4,44.5C 7.44082,31.3941 15.9408,24.5607 29.5,24C 43.5765,22.2926 57.5765,20.126 71.5,17.5C 79.0729,8.3786 88.7396,2.8786 100.5,1C 99.944,0.617425 99.6107,0.117425 99.5,-0.5 Z"/></g>
<g><path style="opacity:1" fill="#4fa0a3" d="M 102.5,3.5 C 125.675,0.847417 144.509,8.51408 159,26.5C 175.158,55.6909 170.658,81.1909 145.5,103C 117.257,118.981 92.0899,115.148 70,91.5C 54.3115,67.7115 54.9782,44.3781 72,21.5C 80.5203,12.4978 90.687,6.49782 102.5,3.5 Z"/></g>
<g><path style="opacity:1" fill="#eaeaef" d="M 101.5,7.5 C 124.084,4.18829 142.25,11.5216 156,29.5C 170.427,56.6867 165.927,80.1867 142.5,100C 116.097,114.448 92.9306,110.614 73,88.5C 57.2276,63.3138 59.7276,40.1471 80.5,19C 86.9846,14.0936 93.9846,10.2603 101.5,7.5 Z"/></g>
<g><path style="opacity:1" fill="#8b8b8d" d="M 112.5,48.5 C 114.32,62.1308 115.153,76.1308 115,90.5C 116.939,93.8933 116.772,97.2267 114.5,100.5C 117.188,102.873 117.021,104.873 114,106.5C 112.994,102.462 111.827,98.4617 110.5,94.5C 110.637,92.8927 111.304,91.5594 112.5,90.5C 112.833,87.3333 113.167,84.1667 113.5,81C 112.776,70.1777 112.442,59.3444 112.5,48.5 Z"/></g>
<g><path style="opacity:1" fill="#b4b4b7" d="M 126.5,88.5 C 128.833,89.8333 131.167,89.8333 133.5,88.5C 133.508,94.2076 133.008,94.5409 132,89.5C 130.383,90.5358 130.216,91.7025 131.5,93C 127.289,95.1876 125.622,93.6876 126.5,88.5 Z"/></g>
<g><path style="opacity:1" fill="#b7b6b9" d="M 74.5,50.5 C 76.045,51.2297 76.8784,52.563 77,54.5C 78.0742,49.8459 79.5742,49.5125 81.5,53.5C 81.5472,55.0004 80.8805,56.0004 79.5,56.5C 77.5841,55.7517 75.5841,55.7517 73.5,56.5C 73.3253,54.3792 73.6586,52.3792 74.5,50.5 Z"/></g>
<g><path style="opacity:1" fill="#c4c3c7" d="M 78.5,37.5 C 80.045,38.2297 80.8784,39.563 81,41.5C 81.3095,40.2341 81.8095,39.0674 82.5,38C 84.8098,37.5034 87.1432,37.3367 89.5,37.5C 89.7394,39.4672 89.4061,41.3005 88.5,43C 85.3138,43.013 81.9805,43.1796 78.5,43.5C 78.5,41.5 78.5,39.5 78.5,37.5 Z"/></g>
<g><path style="opacity:1" fill="#c4c3c7" d="M 120.5,9.5 C 123.049,9.44107 125.049,10.4411 126.5,12.5C 128.922,12.2549 131.255,12.2549 133.5,12.5C 135.956,15.2342 138.956,17.2342 142.5,18.5C 144.234,21.2003 146.568,23.2003 149.5,24.5C 154.181,29.8581 157.847,35.8581 160.5,42.5C 160.057,45.8971 160.724,49.2304 162.5,52.5C 162.042,58.7926 161.042,64.9593 159.5,71C 160.622,72.6134 160.122,73.7801 158,74.5C 157.229,77.1897 156.396,79.8564 155.5,82.5C 151.818,87.9023 147.485,92.7357 142.5,97C 137.817,98.6748 133.484,100.841 129.5,103.5C 129.167,102.833 128.833,102.167 128.5,101.5C 126.205,102.475 124.205,103.808 122.5,105.5C 121.833,105.167 121.167,104.833 120.5,104.5C 121.189,102.556 121.689,100.556 122,98.5C 123.849,101.757 126.349,102.09 129.5,99.5C 130.281,98.2713 130.781,96.938 131,95.5C 131.388,96.428 132.055,97.0946 133,97.5C 135.39,96.7221 137.557,95.5555 139.5,94C 136.803,90.2256 137.303,89.7256 141,92.5C 143.12,91.527 144.953,90.1936 146.5,88.5C 144.703,87.3049 143.703,85.6382 143.5,83.5C 141.833,83.5 140.167,83.5 138.5,83.5C 138.286,81.8561 138.62,80.3561 139.5,79C 141.473,78.5045 143.473,78.3379 145.5,78.5C 144.935,87.7291 146.935,88.5625 151.5,81C 151.095,80.0546 150.428,79.3879 149.5,79C 154.92,77.8098 156.254,74.9765 153.5,70.5C 157.695,68.3453 158.362,65.5119 155.5,62C 156.448,61.5172 157.448,61.3505 158.5,61.5C 158.5,58.8333 158.5,56.1667 158.5,53.5C 157.448,53.6495 156.448,53.4828 155.5,53C 156.516,52.4806 157.182,51.6473 157.5,50.5C 156.844,48.5466 156.511,46.5466 156.5,44.5C 155.448,44.6495 154.448,44.4828 153.5,44C 155.901,41.8274 155.901,39.4941 153.5,37C 152.167,36.6667 150.833,36.3333 149.5,36C 150.308,35.6924 150.975,35.1924 151.5,34.5C 150.167,32.5 148.833,30.5 147.5,28.5C 144.151,29.8303 143.818,29.3303 146.5,27C 145.261,24.7598 143.428,23.2598 141,22.5C 139.739,22.7591 138.739,23.4258 138,24.5C 138.51,22.6199 138.343,20.7866 137.5,19C 136,18.5 134.5,18 133,17.5C 132.055,17.9054 131.388,18.572 131,19.5C 130.401,16.2769 128.401,14.6102 125,14.5C 124.05,15.0223 123.216,15.689 122.5,16.5C 121.579,14.2235 120.913,11.8901 120.5,9.5 Z"/></g>
<g><path style="opacity:1" fill="#c2c2c5" d="M 137.5,35.5 C 140.975,35.7071 144.309,35.8738 147.5,36C 148.406,37.6995 148.739,39.5328 148.5,41.5C 144.871,41.2597 141.205,40.9263 137.5,40.5C 137.977,39.5224 138.643,38.6891 139.5,38C 138.244,37.5831 137.577,36.7498 137.5,35.5 Z"/></g>
<g><path style="opacity:1" fill="#b5b5b8" d="M 120.5,18.5 C 122.379,18.3932 122.712,18.8932 121.5,20C 122.715,22.0955 123.549,21.9288 124,19.5C 125,23.5 126,23.5 127,19.5C 127.49,20.7932 127.657,22.1266 127.5,23.5C 124.167,23.5 120.833,23.5 117.5,23.5C 117.457,19.1074 117.957,18.7741 119,22.5C 119.41,21.0993 119.91,19.766 120.5,18.5 Z"/></g>
<g><path style="opacity:1" fill="#c3c2c6" d="M 102.5,9.5 C 103.649,9.79106 104.316,10.6244 104.5,12C 106.381,16.4698 105.547,17.3032 102,14.5C 100.234,15.2335 98.4008,15.5668 96.5,15.5C 96.6567,16.8734 96.49,18.2068 96,19.5C 93.0552,17.1714 90.5552,17.8381 88.5,21.5C 88.7093,22.086 89.0426,22.586 89.5,23C 83.6988,22.1345 81.1988,24.6345 82,30.5C 79.928,27.8463 78.2613,28.1796 77,31.5C 76.6258,32.4162 76.1258,33.2496 75.5,34C 76.3567,34.6891 77.0233,35.5224 77.5,36.5C 76.3131,36.5536 74.9798,36.8869 73.5,37.5C 72.696,38.9411 72.0294,40.4411 71.5,42C 71.9054,42.9454 72.572,43.6121 73.5,44C 72.2341,44.3095 71.0674,44.8095 70,45.5C 69.5034,47.8098 69.3367,50.1432 69.5,52.5C 73.1716,53.0447 72.8383,53.3781 68.5,53.5C 68.5,56.1667 68.5,58.8333 68.5,61.5C 69.9778,61.238 71.3112,61.5713 72.5,62.5C 71.675,63.3857 70.675,63.719 69.5,63.5C 68.7257,67.242 70.059,69.742 73.5,71C 72.1667,71.6667 70.8333,72.3333 69.5,73C 70.7451,75.6568 72.7451,77.4901 75.5,78.5C 76.086,78.2907 76.586,77.9574 77,77.5C 76.3391,79.0348 76.0058,80.7015 76,82.5C 77.2633,85.4677 79.2633,86.4677 82,85.5C 81.0595,89.1119 82.5595,91.4453 86.5,92.5C 87.4776,92.0233 88.3109,91.3567 89,90.5C 88.9813,92.1075 88.8146,93.7741 88.5,95.5C 90.677,95.5861 92.677,96.2528 94.5,97.5C 95.1924,96.9747 95.6924,96.3081 96,95.5C 96.7203,97.1124 96.5536,98.6124 95.5,100C 97.0009,101.252 98.6675,102.252 100.5,103C 97.8806,102.917 95.214,102.75 92.5,102.5C 92.719,101.325 92.3857,100.325 91.5,99.5C 86.8593,98.4041 83.026,96.0708 80,92.5C 75.2499,87.2863 71.9165,81.6196 70,75.5C 68.9264,74.3816 67.7598,73.3816 66.5,72.5C 65.179,62.5747 65.179,52.5747 66.5,42.5C 69.5151,38.4705 72.0151,34.1372 74,29.5C 77.5713,25.9508 81.0713,22.2842 84.5,18.5C 90.5608,15.4696 96.5608,12.4696 102.5,9.5 Z"/></g>
<g><path style="opacity:1" fill="#b1b1b4" d="M 104.5,98.5 C 105.296,101.225 106.963,103.391 109.5,105C 107.426,104.773 105.426,104.939 103.5,105.5C 102.937,103.291 101.604,101.791 99.5,101C 100.784,100.316 101.951,100.483 103,101.5C 103.513,100.473 104.013,99.4734 104.5,98.5 Z"/></g>
<g><path style="opacity:1" fill="#c3ab12" d="M 21.5,96.5 C 32.9081,101.873 44.2415,107.206 55.5,112.5C 53.3703,113.964 52.037,115.964 51.5,118.5C 52.5,118.5 53.5,118.5 54.5,118.5C 55.8853,117.667 55.7186,120.334 54,126.5C 53.3333,117.167 52.6667,117.167 52,126.5C 51.3333,117.167 50.6667,117.167 50,126.5C 49.4851,117.236 48.6518,117.236 47.5,126.5C 47.1667,125.167 46.8333,123.833 46.5,122.5C 47.1899,120.09 47.6899,117.757 48,115.5C 47.0255,117.878 46.3589,117.544 46,114.5C 45.3333,118.5 44.6667,118.5 44,114.5C 43.6667,115.167 43.3333,115.833 43,116.5C 42,115.167 41,113.833 40,112.5C 39.7351,115.898 40.2351,119.232 41.5,122.5C 41.4146,124.333 40.7479,125.666 39.5,126.5C 38.7904,124.254 38.2904,121.92 38,119.5C 37.6667,121.5 37.3333,123.5 37,125.5C 36.8333,124.333 36.6667,123.167 36.5,122C 37.5705,116.518 38.0705,111.018 38,105.5C 37.1307,110.508 36.4641,110.175 36,104.5C 35.7105,106.952 35.0438,109.285 34,111.5C 31.1084,110.158 29.7751,107.825 30,104.5C 29.1307,109.508 28.4641,109.175 28,103.5C 28.1436,107.708 26.6436,108.875 23.5,107C 22.8095,105.933 22.3095,104.766 22,103.5C 21.237,106.063 20.737,106.063 20.5,103.5C 21.2234,101.218 21.5567,98.8845 21.5,96.5 Z"/></g>
<g><path style="opacity:1" fill="#338984" d="M 1.5,104.5 C 2.83333,105.833 4.16667,107.167 5.5,108.5C 8.68095,110.592 11.681,112.925 14.5,115.5C 12.8333,115.5 11.1667,115.5 9.5,115.5C 7.5,115.167 5.5,114.833 3.5,114.5C 2.83333,114.167 2.16667,113.833 1.5,113.5C 1.5,110.5 1.5,107.5 1.5,104.5 Z"/></g>
<g><path style="opacity:1" fill="#e7c709" d="M 21.5,96.5 C 21.5567,98.8845 21.2234,101.218 20.5,103.5C 20.737,106.063 21.237,106.063 22,103.5C 22.3095,104.766 22.8095,105.933 23.5,107C 26.6436,108.875 28.1436,107.708 28,103.5C 28.4641,109.175 29.1307,109.508 30,104.5C 29.7751,107.825 31.1084,110.158 34,111.5C 35.0438,109.285 35.7105,106.952 36,104.5C 36.4641,110.175 37.1307,110.508 38,105.5C 38.0705,111.018 37.5705,116.518 36.5,122C 36.6667,123.167 36.8333,124.333 37,125.5C 37.3333,123.5 37.6667,121.5 38,119.5C 38.2904,121.92 38.7904,124.254 39.5,126.5C 38.4324,127.434 37.099,127.768 35.5,127.5C 35.8016,130.059 35.4682,132.393 34.5,134.5C 34.631,133.761 34.4643,133.094 34,132.5C 33.0228,133.774 32.1894,133.774 31.5,132.5C 31.5,132.167 31.5,131.833 31.5,131.5C 32.4616,129.014 33.2949,129.014 34,131.5C 34.4828,130.552 34.6495,129.552 34.5,128.5C 32.3888,129.38 30.3888,129.38 28.5,128.5C 26.6048,126.902 24.4381,125.568 22,124.5C 21.2153,130.249 21.3819,135.916 22.5,141.5C 21.8333,141.5 21.1667,141.5 20.5,141.5C 20.6664,133.493 20.4997,125.493 20,117.5C 19.5003,125.159 19.3336,132.826 19.5,140.5C 18.5,140.5 17.5,140.5 16.5,140.5C 14.8333,140.5 13.1667,140.5 11.5,140.5C 9.73535,139.539 7.73535,139.205 5.5,139.5C 3.7857,138.262 1.7857,137.595 -0.5,137.5C -0.5,135.167 -0.5,132.833 -0.5,130.5C 0.458367,130.047 1.2917,129.381 2,128.5C 2.82935,123.863 3.32935,119.196 3.5,114.5C 5.5,114.833 7.5,115.167 9.5,115.5C 10.209,116.404 11.209,116.737 12.5,116.5C 12.8333,125.833 13.1667,125.833 13.5,116.5C 14.8333,116.5 16.1667,116.5 17.5,116.5C 18.5252,110.203 19.3586,103.87 20,97.5C 20.3826,96.944 20.8826,96.6107 21.5,96.5 Z"/></g>
<g><path style="opacity:1" fill="#a37ed2" d="M -0.5,99.5 C 0.166667,100.167 0.833333,100.833 1.5,101.5C 1.5,102.5 1.5,103.5 1.5,104.5C 1.5,107.5 1.5,110.5 1.5,113.5C 1.66568,117.846 1.49902,122.179 1,126.5C 0.721579,127.416 0.221579,128.082 -0.5,128.5C -0.5,118.833 -0.5,109.167 -0.5,99.5 Z"/></g>
<g><path style="opacity:1" fill="#666024" d="M 20.5,141.5 C 18.901,141.768 17.5676,141.434 16.5,140.5C 17.5,140.5 18.5,140.5 19.5,140.5C 19.3336,132.826 19.5003,125.159 20,117.5C 20.4997,125.493 20.6664,133.493 20.5,141.5 Z"/></g>
<g><path style="opacity:1" fill="#ac9b17" d="M 202.5,118.5 C 205.287,117.523 208.287,117.19 211.5,117.5C 211.664,120.187 211.497,122.854 211,125.5C 210,116.167 209,116.167 208,125.5C 207.333,116.167 206.667,116.167 206,125.5C 205.333,116.167 204.667,116.167 204,125.5C 203.814,122.964 203.314,120.631 202.5,118.5 Z"/></g>
<g><path style="opacity:1" fill="#858c31" d="M 120.5,121.5 C 126.979,120.509 133.646,120.176 140.5,120.5C 141.833,120.5 143.167,120.5 144.5,120.5C 144.5,120.833 144.5,121.167 144.5,121.5C 144.663,123.857 144.497,126.19 144,128.5C 143.814,125.964 143.314,123.631 142.5,121.5C 141.833,121.5 141.167,121.5 140.5,121.5C 138.803,123.305 137.97,125.639 138,128.5C 137.503,126.19 137.337,123.857 137.5,121.5C 135.5,121.5 133.5,121.5 131.5,121.5C 131.167,130.833 130.833,130.833 130.5,121.5C 128.5,121.5 126.5,121.5 124.5,121.5C 124.167,130.833 123.833,130.833 123.5,121.5C 122.5,121.5 121.5,121.5 120.5,121.5 Z"/></g>
<g><path style="opacity:1" fill="#787a24" d="M 173.5,120.5 C 175.607,119.532 177.941,119.198 180.5,119.5C 180.664,122.187 180.497,124.854 180,127.5C 179.503,125.19 179.337,122.857 179.5,120.5C 177.5,120.5 175.5,120.5 173.5,120.5 Z"/></g>
<g><path style="opacity:1" fill="#eece06" d="M 211.5,117.5 C 212.492,125.316 212.826,133.316 212.5,141.5C 205.173,142.227 197.84,142.893 190.5,143.5C 190.5,135.5 190.5,127.5 190.5,119.5C 191.833,119.5 193.167,119.5 194.5,119.5C 194.833,128.833 195.167,128.833 195.5,119.5C 196.5,119.5 197.5,119.5 198.5,119.5C 198.52,128.741 199.186,128.741 200.5,119.5C 201.308,121.423 201.808,123.423 202,125.5C 202.497,123.19 202.663,120.857 202.5,118.5C 203.314,120.631 203.814,122.964 204,125.5C 204.667,116.167 205.333,116.167 206,125.5C 206.667,116.167 207.333,116.167 208,125.5C 209,116.167 210,116.167 211,125.5C 211.497,122.854 211.664,120.187 211.5,117.5 Z"/></g>
<g><path style="opacity:1" fill="#aa9b23" d="M 1.5,113.5 C 2.16667,113.833 2.83333,114.167 3.5,114.5C 3.32935,119.196 2.82935,123.863 2,128.5C 1.2917,129.381 0.458367,130.047 -0.5,130.5C -0.5,129.833 -0.5,129.167 -0.5,128.5C 0.221579,128.082 0.721579,127.416 1,126.5C 1.49902,122.179 1.66568,117.846 1.5,113.5 Z"/></g>
<g><path style="opacity:1" fill="#c7ae0f" d="M 61.5,114.5 C 63.5739,115.514 65.5739,116.514 67.5,117.5C 66.8339,120.689 66.1672,124.023 65.5,127.5C 64.1865,118.259 63.5198,118.259 63.5,127.5C 62.5,127.5 61.5,127.5 60.5,127.5C 60.5865,123.143 60.9198,118.81 61.5,114.5 Z"/></g>
<g><path style="opacity:1" fill="#c7ad0f" d="M 57.5,113.5 C 58.791,113.263 59.791,113.596 60.5,114.5C 59.8005,118.798 59.4672,123.131 59.5,127.5C 58.1667,127.5 56.8333,127.5 55.5,127.5C 55.5219,122.728 56.1885,118.061 57.5,113.5 Z"/></g>
<g><path style="opacity:1" fill="#9d8f19" d="M 190.5,119.5 C 194.298,118.517 198.298,118.183 202.5,118.5C 202.663,120.857 202.497,123.19 202,125.5C 201.808,123.423 201.308,121.423 200.5,119.5C 199.186,128.741 198.52,128.741 198.5,119.5C 197.5,119.5 196.5,119.5 195.5,119.5C 195.167,128.833 194.833,128.833 194.5,119.5C 193.167,119.5 191.833,119.5 190.5,119.5 Z"/></g>
<g><path style="opacity:1" fill="#e0c20c" d="M 180.5,119.5 C 183.833,119.5 187.167,119.5 190.5,119.5C 190.5,127.5 190.5,135.5 190.5,143.5C 184.162,143.767 177.829,144.1 171.5,144.5C 169.5,144.5 167.5,144.5 165.5,144.5C 165.5,136.5 165.5,128.5 165.5,120.5C 168.167,120.5 170.833,120.5 173.5,120.5C 175.5,120.5 177.5,120.5 179.5,120.5C 179.337,122.857 179.503,125.19 180,127.5C 180.497,124.854 180.664,122.187 180.5,119.5 Z"/></g>
<g><path style="opacity:1" fill="#a89716" d="M 144.5,121.5 C 144.5,121.167 144.5,120.833 144.5,120.5C 149.167,120.5 153.833,120.5 158.5,120.5C 156.951,122.829 156.117,125.496 156,128.5C 155,119.167 154,119.167 153,128.5C 152.333,119.167 151.667,119.167 151,128.5C 150.333,119.167 149.667,119.167 149,128.5C 148.503,126.19 148.337,123.857 148.5,121.5C 147.167,121.5 145.833,121.5 144.5,121.5 Z"/></g>
<g><path style="opacity:1" fill="#eccc07" d="M 222.5,115.5 C 222.833,115.5 223.167,115.5 223.5,115.5C 223.5,118.167 223.5,120.833 223.5,123.5C 224.5,123.5 225.5,123.5 226.5,123.5C 226.719,124.675 226.386,125.675 225.5,126.5C 220.25,127.335 219.083,130.002 222,134.5C 222.308,133.692 222.808,133.025 223.5,132.5C 224.736,133.246 226.07,133.579 227.5,133.5C 227.5,135.167 227.5,136.833 227.5,138.5C 224.572,138.565 221.905,139.232 219.5,140.5C 218.167,140.5 216.833,140.5 215.5,140.5C 214.835,136.849 214.501,133.015 214.5,129C 214.569,124.579 215.235,120.412 216.5,116.5C 218.565,116.483 220.565,116.15 222.5,115.5 Z"/></g>
<g><path style="opacity:1" fill="#675d20" d="M 10.5,128.5 C 9.34775,127.375 8.34775,127.375 7.5,128.5C 4.70257,127.192 4.86924,126.525 8,126.5C 9.37561,126.684 10.2089,127.351 10.5,128.5 Z"/></g>
<g><path style="opacity:1" fill="#eacb09" d="M 55.5,112.5 C 56.4916,112.328 57.1583,112.662 57.5,113.5C 56.1885,118.061 55.5219,122.728 55.5,127.5C 56.8333,127.5 58.1667,127.5 59.5,127.5C 59.4672,123.131 59.8005,118.798 60.5,114.5C 60.8333,114.5 61.1667,114.5 61.5,114.5C 60.9198,118.81 60.5865,123.143 60.5,127.5C 61.5,127.5 62.5,127.5 63.5,127.5C 63.5198,118.259 64.1865,118.259 65.5,127.5C 66.1672,124.023 66.8339,120.689 67.5,117.5C 70.6883,117.618 73.6883,118.451 76.5,120C 79.8168,120.498 83.1501,120.665 86.5,120.5C 88.5,120.5 90.5,120.5 92.5,120.5C 92.8333,152.5 93.1667,152.5 93.5,120.5C 94.8333,120.5 96.1667,120.5 97.5,120.5C 97.3359,123.187 97.5026,125.854 98,128.5C 98.4966,126.19 98.6633,123.857 98.5,121.5C 99.5,121.5 100.5,121.5 101.5,121.5C 101.833,130.833 102.167,130.833 102.5,121.5C 104.5,121.5 106.5,121.5 108.5,121.5C 108.833,130.833 109.167,130.833 109.5,121.5C 110.833,121.5 112.167,121.5 113.5,121.5C 113.337,123.857 113.503,126.19 114,128.5C 113.97,125.639 114.803,123.305 116.5,121.5C 115.981,129.204 115.981,136.871 116.5,144.5C 117.497,136.862 117.831,129.196 117.5,121.5C 118.348,120.375 119.348,120.375 120.5,121.5C 121.5,121.5 122.5,121.5 123.5,121.5C 123.833,130.833 124.167,130.833 124.5,121.5C 126.5,121.5 128.5,121.5 130.5,121.5C 130.833,130.833 131.167,130.833 131.5,121.5C 133.5,121.5 135.5,121.5 137.5,121.5C 137.337,123.857 137.503,126.19 138,128.5C 137.97,125.639 138.803,123.305 140.5,121.5C 139.792,130.495 139.625,139.495 140,148.5C 140.249,147.376 140.749,146.376 141.5,145.5C 141.833,146.167 142.167,146.833 142.5,147.5C 141.654,151.118 141.32,154.785 141.5,158.5C 140.978,160.219 139.978,161.552 138.5,162.5C 131.304,159.962 124.304,157.962 117.5,156.5C 115.271,155.423 112.937,154.756 110.5,154.5C 109.329,153.655 107.995,152.989 106.5,152.5C 104.485,151.076 102.152,150.41 99.5,150.5C 98.71,149.391 98.21,148.058 98,146.5C 97.5172,147.448 97.3505,148.448 97.5,149.5C 94.0321,148.899 90.6988,147.899 87.5,146.5C 81.3533,144.688 75.02,144.021 68.5,144.5C 68.6664,136.493 68.4997,128.493 68,120.5C 67.5003,128.159 67.3336,135.826 67.5,143.5C 61.5,143.5 55.5,143.5 49.5,143.5C 48.1667,143.5 46.8333,143.5 45.5,143.5C 45.831,135.472 45.4977,127.472 44.5,119.5C 43.5025,127.138 43.1692,134.804 43.5,142.5C 40.8333,142.5 38.1667,142.5 35.5,142.5C 31.1434,142.414 26.81,142.08 22.5,141.5C 21.3819,135.916 21.2153,130.249 22,124.5C 24.4381,125.568 26.6048,126.902 28.5,128.5C 28.5,129.5 28.5,130.5 28.5,131.5C 29.5,131.5 30.5,131.5 31.5,131.5C 31.5,131.833 31.5,132.167 31.5,132.5C 28.4524,132.494 27.9524,133.494 30,135.5C 31.6837,134.807 33.1837,134.474 34.5,134.5C 35.4682,132.393 35.8016,130.059 35.5,127.5C 37.099,127.768 38.4324,127.434 39.5,126.5C 40.7479,125.666 41.4146,124.333 41.5,122.5C 40.2351,119.232 39.7351,115.898 40,112.5C 41,113.833 42,115.167 43,116.5C 43.3333,115.833 43.6667,115.167 44,114.5C 44.6667,118.5 45.3333,118.5 46,114.5C 46.3589,117.544 47.0255,117.878 48,115.5C 47.6899,117.757 47.1899,120.09 46.5,122.5C 46.8333,123.833 47.1667,125.167 47.5,126.5C 48.6518,117.236 49.4851,117.236 50,126.5C 50.6667,117.167 51.3333,117.167 52,126.5C 52.6667,117.167 53.3333,117.167 54,126.5C 55.7186,120.334 55.8853,117.667 54.5,118.5C 53.5,118.5 52.5,118.5 51.5,118.5C 52.037,115.964 53.3703,113.964 55.5,112.5 Z"/></g>
<g><path style="opacity:1" fill="#8f922d" d="M 97.5,120.5 C 104.022,120.177 110.355,120.51 116.5,121.5C 114.803,123.305 113.97,125.639 114,128.5C 113.503,126.19 113.337,123.857 113.5,121.5C 112.167,121.5 110.833,121.5 109.5,121.5C 109.167,130.833 108.833,130.833 108.5,121.5C 106.5,121.5 104.5,121.5 102.5,121.5C 102.167,130.833 101.833,130.833 101.5,121.5C 100.5,121.5 99.5,121.5 98.5,121.5C 98.6633,123.857 98.4966,126.19 98,128.5C 97.5026,125.854 97.3359,123.187 97.5,120.5 Z"/></g>
<g><path style="opacity:1" fill="#b09d19" d="M 227.5,114.5 C 227.5,120.833 227.5,127.167 227.5,133.5C 226.07,133.579 224.736,133.246 223.5,132.5C 222.808,133.025 222.308,133.692 222,134.5C 219.083,130.002 220.25,127.335 225.5,126.5C 226.386,125.675 226.719,124.675 226.5,123.5C 225.5,123.5 224.5,123.5 223.5,123.5C 223.5,120.833 223.5,118.167 223.5,115.5C 224.833,115.167 226.167,114.833 227.5,114.5 Z"/></g>
<g><path style="opacity:1" fill="#eccc07" d="M 158.5,120.5 C 160.5,120.5 162.5,120.5 164.5,120.5C 164.5,128.167 164.5,135.833 164.5,143.5C 162.5,143.5 160.5,143.5 158.5,143.5C 158.649,144.552 158.483,145.552 158,146.5C 155.022,144.245 151.856,144.078 148.5,146C 149.517,147.049 149.684,148.216 149,149.5C 147.667,148.833 146.667,147.833 146,146.5C 145.219,147.944 145.386,149.277 146.5,150.5C 148.632,151.233 150.465,151.233 152,150.5C 152.333,149.167 152.667,147.833 153,146.5C 152.702,151.009 154.702,153.676 159,154.5C 159.973,152.608 160.64,150.608 161,148.5C 161.333,150.167 161.667,151.833 162,153.5C 162.662,151.187 163.162,148.854 163.5,146.5C 163.833,146.5 164.167,146.5 164.5,146.5C 163.965,151.843 163.299,157.176 162.5,162.5C 162.444,164.64 161.777,166.306 160.5,167.5C 154.808,166.528 149.141,165.361 143.5,164C 141.808,162.599 141.141,160.766 141.5,158.5C 142.916,154.732 143.916,150.732 144.5,146.5C 142.628,138.306 141.962,129.972 142.5,121.5C 143.314,123.631 143.814,125.964 144,128.5C 144.497,126.19 144.663,123.857 144.5,121.5C 145.833,121.5 147.167,121.5 148.5,121.5C 148.337,123.857 148.503,126.19 149,128.5C 149.667,119.167 150.333,119.167 151,128.5C 151.667,119.167 152.333,119.167 153,128.5C 154,119.167 155,119.167 156,128.5C 156.117,125.496 156.951,122.829 158.5,120.5 Z"/></g>
<g><path style="opacity:1" fill="#9a8716" d="M 28.5,128.5 C 30.3888,129.38 32.3888,129.38 34.5,128.5C 34.6495,129.552 34.4828,130.552 34,131.5C 33.2949,129.014 32.4616,129.014 31.5,131.5C 30.5,131.5 29.5,131.5 28.5,131.5C 28.5,130.5 28.5,129.5 28.5,128.5 Z"/></g>
<g><path style="opacity:1" fill="#a99414" d="M 199.5,129.5 C 201.205,130.535 202.872,130.535 204.5,129.5C 204.833,130 205.167,130.5 205.5,131C 205.363,133.102 205.03,135.268 204.5,137.5C 203.5,136.833 202.5,136.167 201.5,135.5C 200.5,138.167 199.5,138.167 198.5,135.5C 200.167,134.833 201.833,134.167 203.5,133.5C 202.38,131.404 200.88,131.07 199,132.5C 198.53,131.423 198.697,130.423 199.5,129.5 Z"/></g>
<g><path style="opacity:1" fill="#9b8b18" d="M 211.5,117.5 C 212.209,116.596 213.209,116.263 214.5,116.5C 215.167,116.5 215.833,116.5 216.5,116.5C 215.235,120.412 214.569,124.579 214.5,129C 214.501,133.015 214.835,136.849 215.5,140.5C 215.5,140.833 215.5,141.167 215.5,141.5C 214.5,141.5 213.5,141.5 212.5,141.5C 212.826,133.316 212.492,125.316 211.5,117.5 Z"/></g>
<g><path style="opacity:1" fill="#a89314" d="M 10.5,128.5 C 11.4339,130.239 11.4339,131.905 10.5,133.5C 8.95787,132.253 7.45787,132.253 6,133.5C 5.51722,132.552 5.35055,131.552 5.5,130.5C 7.99349,130.869 8.66015,130.203 7.5,128.5C 8.34775,127.375 9.34775,127.375 10.5,128.5 Z"/></g>
<g><path style="opacity:1" fill="#ab9613" d="M 56.5,129.5 C 58.3464,129.222 59.6798,129.889 60.5,131.5C 58.1667,134.167 55.8333,134.167 53.5,131.5C 53.9377,130.494 54.6043,130.494 55.5,131.5C 56.2975,131.043 56.6309,130.376 56.5,129.5 Z"/></g>
<g><path style="opacity:1" fill="#8b7b1a" d="M 126.5,131.5 C 128.977,131.051 130.977,131.717 132.5,133.5C 131.635,133.564 130.635,133.897 129.5,134.5C 128.459,132.009 127.626,132.009 127,134.5C 126.517,133.552 126.351,132.552 126.5,131.5 Z"/></g>
<g><path style="opacity:1" fill="#a49017" d="M 105.5,130.5 C 107.686,130.511 108.519,131.511 108,133.5C 105.928,133.258 103.761,133.591 101.5,134.5C 101.5,133.5 101.5,132.5 101.5,131.5C 103.099,131.768 104.432,131.434 105.5,130.5 Z"/></g>
<g><path style="opacity:1" fill="#b79f13" d="M 140.5,121.5 C 141.167,121.5 141.833,121.5 142.5,121.5C 141.962,129.972 142.628,138.306 144.5,146.5C 143.916,150.732 142.916,154.732 141.5,158.5C 141.32,154.785 141.654,151.118 142.5,147.5C 142.167,146.833 141.833,146.167 141.5,145.5C 140.749,146.376 140.249,147.376 140,148.5C 139.625,139.495 139.792,130.495 140.5,121.5 Z"/></g>
<g><path style="opacity:1" fill="#938218" d="M 31.5,132.5 C 32.1894,133.774 33.0228,133.774 34,132.5C 34.4643,133.094 34.631,133.761 34.5,134.5C 33.1837,134.474 31.6837,134.807 30,135.5C 27.9524,133.494 28.4524,132.494 31.5,132.5 Z"/></g>
<g><path style="opacity:1" fill="#b69f14" d="M 77.5,130.5 C 81.9885,130.737 83.9885,133.07 83.5,137.5C 81.396,137.799 79.396,137.466 77.5,136.5C 78.7287,135.719 80.062,135.219 81.5,135C 80.2396,133.887 79.073,133.72 78,134.5C 77.51,133.207 77.3433,131.873 77.5,130.5 Z"/></g>
<g><path style="opacity:1" fill="#b59e16" d="M 174.5,131.5 C 176.167,131.5 177.833,131.5 179.5,131.5C 179.663,133.857 179.497,136.19 179,138.5C 177.488,136.043 176.154,136.043 175,138.5C 174.503,136.19 174.337,133.857 174.5,131.5 Z"/></g>
<g><path style="opacity:1" fill="#9b8c1b" d="M 45.5,143.5 C 41.9581,143.813 38.6248,143.479 35.5,142.5C 38.1667,142.5 40.8333,142.5 43.5,142.5C 43.1692,134.804 43.5025,127.138 44.5,119.5C 45.4977,127.472 45.831,135.472 45.5,143.5 Z"/></g>
<g><path style="opacity:1" fill="#baa214" d="M 150.5,130.5 C 156.367,130.206 158.033,132.872 155.5,138.5C 153.684,136.559 151.684,135.892 149.5,136.5C 149.803,134.471 150.136,132.471 150.5,130.5 Z"/></g>
<g><path style="opacity:1" fill="#9b8816" d="M 126.5,136.5 C 128.288,136.215 129.955,136.548 131.5,137.5C 130.152,137.45 128.652,137.783 127,138.5C 126.536,137.906 126.369,137.239 126.5,136.5 Z"/></g>
<g><path style="opacity:1" fill="#0c9e9d" d="M -0.5,137.5 C 1.7857,137.595 3.7857,138.262 5.5,139.5C 4.16788,149.812 3.50121,160.478 3.5,171.5C 3.66667,182.167 3.83333,192.833 4,203.5C 5.78365,213.287 11.2836,220.121 20.5,224C 28.8842,224.876 37.2175,225.709 45.5,226.5C 53.7163,226.323 61.7163,226.99 69.5,228.5C 51.1667,228.5 32.8333,228.5 14.5,228.5C 7.85859,225.192 2.85859,220.192 -0.5,213.5C -0.5,188.167 -0.5,162.833 -0.5,137.5 Z"/></g>
<g><path style="opacity:1" fill="#288c8f" d="M 5.5,139.5 C 7.73535,139.205 9.73535,139.539 11.5,140.5C 10.3376,159.996 10.1709,179.662 11,199.5C 12.8333,205.333 16.6667,209.167 22.5,211C 33.6593,211.789 44.6593,212.622 55.5,213.5C 52.8712,216.631 50.0379,219.631 47,222.5C 46.2086,223.745 45.7086,225.078 45.5,226.5C 37.2175,225.709 28.8842,224.876 20.5,224C 11.2836,220.121 5.78365,213.287 4,203.5C 3.83333,192.833 3.66667,182.167 3.5,171.5C 3.50121,160.478 4.16788,149.812 5.5,139.5 Z"/></g>
<g><path style="opacity:1" fill="#1e9e96" d="M 227.5,138.5 C 227.5,144.5 227.5,150.5 227.5,156.5C 226.167,156.5 224.833,156.5 223.5,156.5C 224.449,151.26 224.782,145.927 224.5,140.5C 222.833,140.5 221.167,140.5 219.5,140.5C 221.905,139.232 224.572,138.565 227.5,138.5 Z"/></g>
<g><path style="opacity:1" fill="#04797a" d="M 215.5,140.5 C 216.833,140.5 218.167,140.5 219.5,140.5C 221.167,140.5 222.833,140.5 224.5,140.5C 224.782,145.927 224.449,151.26 223.5,156.5C 220.5,156.5 217.5,156.5 214.5,156.5C 214.5,156.167 214.5,155.833 214.5,155.5C 215.486,151.03 215.819,146.363 215.5,141.5C 215.5,141.167 215.5,140.833 215.5,140.5 Z"/></g>
<g><path style="opacity:1" fill="#296a6b" d="M 11.5,140.5 C 13.1667,140.5 14.8333,140.5 16.5,140.5C 17.5676,141.434 18.901,141.768 20.5,141.5C 21.1667,141.5 21.8333,141.5 22.5,141.5C 26.81,142.08 31.1434,142.414 35.5,142.5C 38.6248,143.479 41.9581,143.813 45.5,143.5C 46.8333,143.5 48.1667,143.5 49.5,143.5C 55.6446,144.49 61.9779,144.823 68.5,144.5C 75.02,144.021 81.3533,144.688 87.5,146.5C 87.9164,156.497 88.2498,166.497 88.5,176.5C 89.3414,178.379 89.6747,180.379 89.5,182.5C 88.71,181.391 88.21,180.058 88,178.5C 76.8433,189.81 66.3433,201.477 56.5,213.5C 56.1667,213.5 55.8333,213.5 55.5,213.5C 44.6593,212.622 33.6593,211.789 22.5,211C 16.6667,209.167 12.8333,205.333 11,199.5C 10.1709,179.662 10.3376,159.996 11.5,140.5 Z"/></g>
<g><path style="opacity:1" fill="#0d524d" d="M 212.5,141.5 C 213.5,141.5 214.5,141.5 215.5,141.5C 215.819,146.363 215.486,151.03 214.5,155.5C 212.5,155.5 210.5,155.5 208.5,155.5C 207.5,155.5 206.5,155.5 205.5,155.5C 201.015,154.216 196.349,153.216 191.5,152.5C 190.081,151.549 188.415,151.216 186.5,151.5C 185.081,150.549 183.415,150.216 181.5,150.5C 177.207,149.343 172.873,148.343 168.5,147.5C 167.791,146.596 166.791,146.263 165.5,146.5C 167.5,145.833 169.5,145.167 171.5,144.5C 177.829,144.1 184.162,143.767 190.5,143.5C 197.84,142.893 205.173,142.227 212.5,141.5 Z"/></g>
<g><path style="opacity:1" fill="#988617" d="M 116.5,121.5 C 116.833,121.5 117.167,121.5 117.5,121.5C 117.831,129.196 117.497,136.862 116.5,144.5C 115.981,136.871 115.981,129.204 116.5,121.5 Z"/></g>
<g><path style="opacity:1" fill="#82882f" d="M 68.5,144.5 C 61.9779,144.823 55.6446,144.49 49.5,143.5C 55.5,143.5 61.5,143.5 67.5,143.5C 67.3336,135.826 67.5003,128.159 68,120.5C 68.4997,128.493 68.6664,136.493 68.5,144.5 Z"/></g>
<g><path style="opacity:1" fill="#4e6432" d="M 164.5,120.5 C 164.833,120.5 165.167,120.5 165.5,120.5C 165.5,128.5 165.5,136.5 165.5,144.5C 167.5,144.5 169.5,144.5 171.5,144.5C 169.5,145.167 167.5,145.833 165.5,146.5C 165.167,146.5 164.833,146.5 164.5,146.5C 164.167,146.5 163.833,146.5 163.5,146.5C 162.394,145.851 161.394,145.517 160.5,145.5C 161.949,144.828 163.282,144.161 164.5,143.5C 164.5,135.833 164.5,128.167 164.5,120.5 Z"/></g>
<g><path style="opacity:1" fill="#8b7b19" d="M 107.5,147.5 C 110.495,145.983 111.661,146.983 111,150.5C 110.28,148.944 109.113,147.944 107.5,147.5 Z"/></g>
<g><path style="opacity:1" fill="#2a8b8d" d="M 87.5,146.5 C 90.6988,147.899 94.0321,148.899 97.5,149.5C 97.3505,148.448 97.5172,147.448 98,146.5C 98.21,148.058 98.71,149.391 99.5,150.5C 101.515,151.924 103.848,152.59 106.5,152.5C 107.995,152.989 109.329,153.655 110.5,154.5C 102.806,161.527 95.4729,168.86 88.5,176.5C 88.2498,166.497 87.9164,156.497 87.5,146.5 Z"/></g>
<g><path style="opacity:1" fill="#9eb448" d="M 99.5,150.5 C 102.152,150.41 104.485,151.076 106.5,152.5C 103.848,152.59 101.515,151.924 99.5,150.5 Z"/></g>
<g><path style="opacity:1" fill="#a69215" d="M 128.5,148.5 C 135.511,148.526 136.344,150.86 131,155.5C 127.337,154.174 126.504,151.841 128.5,148.5 Z"/></g>
<g><path style="opacity:1" fill="#6c611f" d="M 120.5,145.5 C 121.124,145.917 121.457,146.584 121.5,147.5C 120.936,149.819 120.436,152.153 120,154.5C 119.505,151.469 119.671,148.469 120.5,145.5 Z"/></g>
<g><path style="opacity:1" fill="#cfb40d" d="M 164.5,143.5 C 163.282,144.161 161.949,144.828 160.5,145.5C 161.394,145.517 162.394,145.851 163.5,146.5C 163.162,148.854 162.662,151.187 162,153.5C 161.667,151.833 161.333,150.167 161,148.5C 160.64,150.608 159.973,152.608 159,154.5C 154.702,153.676 152.702,151.009 153,146.5C 152.667,147.833 152.333,149.167 152,150.5C 150.465,151.233 148.632,151.233 146.5,150.5C 145.386,149.277 145.219,147.944 146,146.5C 146.667,147.833 147.667,148.833 149,149.5C 149.684,148.216 149.517,147.049 148.5,146C 151.856,144.078 155.022,144.245 158,146.5C 158.483,145.552 158.649,144.552 158.5,143.5C 160.5,143.5 162.5,143.5 164.5,143.5 Z"/></g>
<g><path style="opacity:1" fill="#01787b" d="M 110.5,154.5 C 112.937,154.756 115.271,155.423 117.5,156.5C 124.304,157.962 131.304,159.962 138.5,162.5C 137.841,174.831 137.675,187.164 138,199.5C 139.908,206.741 144.408,211.241 151.5,213C 159.345,213.822 167.011,213.656 174.5,212.5C 174.833,212.5 175.167,212.5 175.5,212.5C 180.74,213.449 186.073,213.782 191.5,213.5C 191.833,213.5 192.167,213.5 192.5,213.5C 199.11,214.651 205.777,214.651 212.5,213.5C 214.099,213.768 215.432,213.434 216.5,212.5C 217.167,212.5 217.833,212.5 218.5,212.5C 220.646,212.696 220.812,213.696 219,215.5C 214.26,220.621 208.427,223.788 201.5,225C 185.334,226.014 169.334,227.181 153.5,228.5C 125.5,228.5 97.5,228.5 69.5,228.5C 61.7163,226.99 53.7163,226.323 45.5,226.5C 45.7086,225.078 46.2086,223.745 47,222.5C 50.0379,219.631 52.8712,216.631 55.5,213.5C 55.8333,213.5 56.1667,213.5 56.5,213.5C 81.4026,217.93 92.4026,207.597 89.5,182.5C 89.6747,180.379 89.3414,178.379 88.5,176.5C 95.4729,168.86 102.806,161.527 110.5,154.5 Z"/></g>
<g><path style="opacity:1" fill="#d5b90d" d="M 181.5,150.5 C 183.415,150.216 185.081,150.549 186.5,151.5C 185.779,154.817 185.612,158.151 186,161.5C 186.953,158.568 187.453,155.568 187.5,152.5C 188.833,152.5 190.167,152.5 191.5,152.5C 196.349,153.216 201.015,154.216 205.5,155.5C 205.176,157.964 205.009,160.631 205,163.5C 204.193,159.551 203.693,159.551 203.5,163.5C 201.139,163.326 198.806,162.993 196.5,162.5C 196.543,158.107 196.043,157.774 195,161.5C 194.182,156.206 193.682,156.206 193.5,161.5C 188.76,160.921 186.094,162.921 185.5,167.5C 185.784,165.585 185.451,163.919 184.5,162.5C 184.657,161.127 184.49,159.793 184,158.5C 183.667,158.833 183.333,159.167 183,159.5C 182.641,156.456 181.974,156.122 181,158.5C 181.083,155.881 181.25,153.214 181.5,150.5 Z"/></g>
<g><path style="opacity:1" fill="#918219" d="M 164.5,146.5 C 164.833,146.5 165.167,146.5 165.5,146.5C 166.791,146.263 167.791,146.596 168.5,147.5C 167.5,147.5 166.5,147.5 165.5,147.5C 165.021,154.519 164.354,161.519 163.5,168.5C 162.209,168.737 161.209,168.404 160.5,167.5C 161.777,166.306 162.444,164.64 162.5,162.5C 163.299,157.176 163.965,151.843 164.5,146.5 Z"/></g>
<g><path style="opacity:1" fill="#e6c70a" d="M 168.5,147.5 C 172.873,148.343 177.207,149.343 181.5,150.5C 181.25,153.214 181.083,155.881 181,158.5C 181.974,156.122 182.641,156.456 183,159.5C 183.333,159.167 183.667,158.833 184,158.5C 184.49,159.793 184.657,161.127 184.5,162.5C 184.493,165.038 184.159,167.538 183.5,170C 183.316,171.376 182.649,172.209 181.5,172.5C 179.143,172.663 176.81,172.497 174.5,172C 170.706,170.886 167.04,169.72 163.5,168.5C 164.354,161.519 165.021,154.519 165.5,147.5C 166.5,147.5 167.5,147.5 168.5,147.5 Z"/></g>
<g><path style="opacity:1" fill="#6d6621" d="M 186.5,151.5 C 188.415,151.216 190.081,151.549 191.5,152.5C 190.167,152.5 188.833,152.5 187.5,152.5C 187.453,155.568 186.953,158.568 186,161.5C 185.612,158.151 185.779,154.817 186.5,151.5 Z"/></g>
<g><path style="opacity:1" fill="#c5ae12" d="M 214.5,156.5 C 217.5,156.5 220.5,156.5 223.5,156.5C 224.833,156.5 226.167,156.5 227.5,156.5C 227.5,157.833 227.5,159.167 227.5,160.5C 226.549,161.919 226.216,163.585 226.5,165.5C 225.5,165.5 224.5,165.5 223.5,165.5C 223.481,158.469 222.981,158.136 222,164.5C 221.503,157.497 220.837,157.163 220,163.5C 219.667,162.5 219.333,161.5 219,160.5C 218.536,166.175 217.869,166.508 217,161.5C 216.131,166.508 215.464,166.175 215,160.5C 214.333,165.833 213.667,165.833 213,160.5C 212.667,161.833 212.333,163.167 212,164.5C 211.333,161.833 210.667,161.833 210,164.5C 209.722,163.584 209.222,162.918 208.5,162.5C 209.15,160.565 209.483,158.565 209.5,156.5C 211.167,156.5 212.833,156.5 214.5,156.5 Z"/></g>
<g><path style="opacity:1" fill="#ad9715" d="M 172.5,160.5 C 174.117,161.038 175.784,161.371 177.5,161.5C 177.443,167.131 175.443,168.298 171.5,165C 172.938,164.781 174.271,164.281 175.5,163.5C 174.609,162.41 173.609,162.41 172.5,163.5C 171.438,162.575 171.438,161.575 172.5,160.5 Z"/></g>
<g><path style="opacity:1" fill="#04504f" d="M 141.5,158.5 C 141.141,160.766 141.808,162.599 143.5,164C 149.141,165.361 154.808,166.528 160.5,167.5C 161.209,168.404 162.209,168.737 163.5,168.5C 167.04,169.72 170.706,170.886 174.5,172C 176.81,172.497 179.143,172.663 181.5,172.5C 182.209,173.404 183.209,173.737 184.5,173.5C 189.38,174.969 194.38,175.969 199.5,176.5C 201.607,177.468 203.941,177.802 206.5,177.5C 207.919,178.451 209.585,178.784 211.5,178.5C 212.919,179.451 214.585,179.784 216.5,179.5C 216.5,182.5 216.5,185.5 216.5,188.5C 215.833,188.5 215.5,188.833 215.5,189.5C 214.833,189.5 214.167,189.5 213.5,189.5C 211.901,189.232 210.568,189.566 209.5,190.5C 207.5,190.5 205.5,190.5 203.5,190.5C 200.5,190.5 197.5,190.5 194.5,190.5C 194.167,190.5 193.833,190.5 193.5,190.5C 192.833,190.5 192.167,190.5 191.5,190.5C 185.723,190.403 180.057,189.736 174.5,188.5C 171.833,188.167 169.167,187.833 166.5,187.5C 164.236,186.781 161.903,186.448 159.5,186.5C 158.081,185.549 156.415,185.216 154.5,185.5C 154.175,193.352 154.508,201.018 155.5,208.5C 158.876,210.082 162.542,210.749 166.5,210.5C 167.568,211.434 168.901,211.768 170.5,211.5C 171.708,212.234 173.041,212.567 174.5,212.5C 167.011,213.656 159.345,213.822 151.5,213C 144.408,211.241 139.908,206.741 138,199.5C 137.675,187.164 137.841,174.831 138.5,162.5C 139.978,161.552 140.978,160.219 141.5,158.5 Z"/></g>
<g><path style="opacity:1" fill="#edcd07" d="M 205.5,155.5 C 206.5,155.5 207.5,155.5 208.5,155.5C 207.111,162.444 206.111,169.444 205.5,176.5C 203.5,176.5 201.5,176.5 199.5,176.5C 194.38,175.969 189.38,174.969 184.5,173.5C 184.517,171.435 184.85,169.435 185.5,167.5C 186.094,162.921 188.76,160.921 193.5,161.5C 193.682,156.206 194.182,156.206 195,161.5C 196.043,157.774 196.543,158.107 196.5,162.5C 198.806,162.993 201.139,163.326 203.5,163.5C 203.693,159.551 204.193,159.551 205,163.5C 205.009,160.631 205.176,157.964 205.5,155.5 Z"/></g>
<g><path style="opacity:1" fill="#eecd07" d="M 227.5,160.5 C 227.5,162.833 227.5,165.167 227.5,167.5C 226.598,170.997 225.931,174.663 225.5,178.5C 220.833,178.5 216.167,178.5 211.5,178.5C 209.585,178.784 207.919,178.451 206.5,177.5C 207.058,172.484 207.725,167.484 208.5,162.5C 209.222,162.918 209.722,163.584 210,164.5C 210.667,161.833 211.333,161.833 212,164.5C 212.333,163.167 212.667,161.833 213,160.5C 213.667,165.833 214.333,165.833 215,160.5C 215.464,166.175 216.131,166.508 217,161.5C 217.869,166.508 218.536,166.175 219,160.5C 219.333,161.5 219.667,162.5 220,163.5C 220.837,157.163 221.503,157.497 222,164.5C 222.981,158.136 223.481,158.469 223.5,165.5C 224.5,165.5 225.5,165.5 226.5,165.5C 226.216,163.585 226.549,161.919 227.5,160.5 Z"/></g>
<g><path style="opacity:1" fill="#b9a113" d="M 193.5,165.5 C 195.167,165.5 196.833,165.5 198.5,165.5C 198.456,168.316 197.456,170.649 195.5,172.5C 192.213,170.923 191.546,168.59 193.5,165.5 Z"/></g>
<g><path style="opacity:1" fill="#8e821b" d="M 184.5,162.5 C 185.451,163.919 185.784,165.585 185.5,167.5C 184.85,169.435 184.517,171.435 184.5,173.5C 183.209,173.737 182.209,173.404 181.5,172.5C 182.649,172.209 183.316,171.376 183.5,170C 184.159,167.538 184.493,165.038 184.5,162.5 Z"/></g>
<g><path style="opacity:1" fill="#998716" d="M 215.5,168.5 C 216.833,168.5 218.167,168.5 219.5,168.5C 219.702,170.989 219.202,173.323 218,175.5C 216.513,174.845 215.347,173.845 214.5,172.5C 215.025,171.808 215.692,171.308 216.5,171C 215.748,170.329 215.414,169.496 215.5,168.5 Z"/></g>
<g><path style="opacity:1" fill="#817a21" d="M 208.5,155.5 C 210.5,155.5 212.5,155.5 214.5,155.5C 214.5,155.833 214.5,156.167 214.5,156.5C 212.833,156.5 211.167,156.5 209.5,156.5C 209.483,158.565 209.15,160.565 208.5,162.5C 207.725,167.484 207.058,172.484 206.5,177.5C 203.941,177.802 201.607,177.468 199.5,176.5C 201.5,176.5 203.5,176.5 205.5,176.5C 206.111,169.444 207.111,162.444 208.5,155.5 Z"/></g>
<g><path style="opacity:1" fill="#8e972a" d="M 227.5,167.5 C 227.5,171.5 227.5,175.5 227.5,179.5C 223.833,179.5 220.167,179.5 216.5,179.5C 214.585,179.784 212.919,179.451 211.5,178.5C 216.167,178.5 220.833,178.5 225.5,178.5C 225.931,174.663 226.598,170.997 227.5,167.5 Z"/></g>
<g><path style="opacity:1" fill="#005050" d="M 89.5,182.5 C 92.4026,207.597 81.4026,217.93 56.5,213.5C 66.3433,201.477 76.8433,189.81 88,178.5C 88.21,180.058 88.71,181.391 89.5,182.5 Z"/></g>
<g><path style="opacity:1" fill="#0c807e" d="M 216.5,179.5 C 220.167,179.5 223.833,179.5 227.5,179.5C 227.5,180.833 227.5,182.167 227.5,183.5C 224.215,185.975 220.548,187.642 216.5,188.5C 216.5,185.5 216.5,182.5 216.5,179.5 Z"/></g>
<g><path style="opacity:1" fill="#dedee0" d="M 159.5,186.5 C 161.903,186.448 164.236,186.781 166.5,187.5C 168.354,191.221 170.687,194.554 173.5,197.5C 173.443,198.609 173.11,199.609 172.5,200.5C 171.512,201.795 170.512,203.128 169.5,204.5C 168.5,206.5 167.5,208.5 166.5,210.5C 162.542,210.749 158.876,210.082 155.5,208.5C 155.5,201.167 155.5,193.833 155.5,186.5C 156.833,186.5 158.167,186.5 159.5,186.5 Z"/></g>
<g><path style="opacity:1" fill="#c1aa12" d="M 227.5,183.5 C 227.5,191.5 227.5,199.5 227.5,207.5C 227.167,207.5 226.833,207.5 226.5,207.5C 226.663,200.453 226.163,193.453 225,186.5C 224.667,189.5 224.333,192.5 224,195.5C 223.667,192.833 223.333,190.167 223,187.5C 222.667,190.5 222.333,193.5 222,196.5C 220.333,197.167 218.667,197.833 217,198.5C 216.819,195.305 216.319,192.305 215.5,189.5C 215.5,188.833 215.833,188.5 216.5,188.5C 220.548,187.642 224.215,185.975 227.5,183.5 Z"/></g>
<g><path style="opacity:1" fill="#b8a21a" d="M 166.5,187.5 C 169.167,187.833 171.833,188.167 174.5,188.5C 174.81,191.713 174.477,194.713 173.5,197.5C 170.687,194.554 168.354,191.221 166.5,187.5 Z"/></g>
<g><path style="opacity:1" fill="#94adac" d="M 159.5,186.5 C 158.167,186.5 156.833,186.5 155.5,186.5C 155.5,193.833 155.5,201.167 155.5,208.5C 154.508,201.018 154.175,193.352 154.5,185.5C 156.415,185.216 158.081,185.549 159.5,186.5 Z"/></g>
<g><path style="opacity:1" fill="#125655" d="M 160.5,195.5 C 161.5,195.5 162.5,195.5 163.5,195.5C 163.949,197.977 163.283,199.977 161.5,201.5C 159.261,199.867 158.928,197.867 160.5,195.5 Z"/></g>
<g><path style="opacity:1" fill="#e4c60c" d="M 174.5,188.5 C 180.057,189.736 185.723,190.403 191.5,190.5C 191.5,198.167 191.5,205.833 191.5,213.5C 186.073,213.782 180.74,213.449 175.5,212.5C 174.791,211.596 173.791,211.263 172.5,211.5C 172.5,207.833 172.5,204.167 172.5,200.5C 173.11,199.609 173.443,198.609 173.5,197.5C 174.477,194.713 174.81,191.713 174.5,188.5 Z"/></g>
<g><path style="opacity:1" fill="#e5c70b" d="M 193.5,190.5 C 193.833,190.5 194.167,190.5 194.5,190.5C 194.335,193.518 194.502,196.518 195,199.5C 195.497,196.854 195.664,194.187 195.5,191.5C 197.167,191.5 198.833,191.5 200.5,191.5C 200.671,202.146 201.171,202.146 202,191.5C 202.333,194.167 202.667,196.833 203,199.5C 203.498,196.518 203.665,193.518 203.5,190.5C 205.5,190.5 207.5,190.5 209.5,190.5C 210.5,190.5 211.5,190.5 212.5,190.5C 212.5,198.167 212.5,205.833 212.5,213.5C 205.777,214.651 199.11,214.651 192.5,213.5C 192.201,205.747 192.534,198.08 193.5,190.5 Z"/></g>
<g><path style="opacity:1" fill="#968a1a" d="M 194.5,190.5 C 197.5,190.5 200.5,190.5 203.5,190.5C 203.665,193.518 203.498,196.518 203,199.5C 202.667,196.833 202.333,194.167 202,191.5C 201.171,202.146 200.671,202.146 200.5,191.5C 198.833,191.5 197.167,191.5 195.5,191.5C 195.664,194.187 195.497,196.854 195,199.5C 194.502,196.518 194.335,193.518 194.5,190.5 Z"/></g>
<g><path style="opacity:1" fill="#726f23" d="M 209.5,190.5 C 210.568,189.566 211.901,189.232 213.5,189.5C 213.5,197.167 213.5,204.833 213.5,212.5C 214.5,212.5 215.5,212.5 216.5,212.5C 215.432,213.434 214.099,213.768 212.5,213.5C 212.5,205.833 212.5,198.167 212.5,190.5C 211.5,190.5 210.5,190.5 209.5,190.5 Z"/></g>
<g><path style="opacity:1" fill="#e8ca0a" d="M 226.5,207.5 C 224.137,209.68 221.47,211.347 218.5,212.5C 217.833,212.5 217.167,212.5 216.5,212.5C 215.5,212.5 214.5,212.5 213.5,212.5C 213.5,204.833 213.5,197.167 213.5,189.5C 214.167,189.5 214.833,189.5 215.5,189.5C 216.319,192.305 216.819,195.305 217,198.5C 218.667,197.833 220.333,197.167 222,196.5C 222.333,193.5 222.667,190.5 223,187.5C 223.333,190.167 223.667,192.833 224,195.5C 224.333,192.5 224.667,189.5 225,186.5C 226.163,193.453 226.663,200.453 226.5,207.5 Z"/></g>
<g><path style="opacity:1" fill="#7a6d1c" d="M 178.5,202.5 C 179.756,202.461 180.756,202.961 181.5,204C 179.939,204.318 178.772,205.151 178,206.5C 177.421,205.072 177.588,203.738 178.5,202.5 Z"/></g>
<g><path style="opacity:1" fill="#796d1c" d="M 191.5,190.5 C 192.167,190.5 192.833,190.5 193.5,190.5C 192.534,198.08 192.201,205.747 192.5,213.5C 192.167,213.5 191.833,213.5 191.5,213.5C 191.5,205.833 191.5,198.167 191.5,190.5 Z"/></g>
<g><path style="opacity:1" fill="#7f711d" d="M 221.5,200.5 C 222.675,200.281 223.675,200.614 224.5,201.5C 223.902,202.795 223.402,204.128 223,205.5C 222.667,204.5 222.333,203.5 222,202.5C 221.174,204.405 220.007,204.739 218.5,203.5C 219.77,202.712 220.77,201.712 221.5,200.5 Z"/></g>
<g><path style="opacity:1" fill="#7f711b" d="M 199.5,204.5 C 201.833,204.5 204.167,204.5 206.5,204.5C 206.669,209.041 206.002,209.374 204.5,205.5C 203.483,208.028 202.316,208.028 201,205.5C 199.957,209.226 199.457,208.893 199.5,204.5 Z"/></g>
<g><path style="opacity:1" fill="#a7981f" d="M 172.5,200.5 C 172.5,204.167 172.5,207.833 172.5,211.5C 173.791,211.263 174.791,211.596 175.5,212.5C 175.167,212.5 174.833,212.5 174.5,212.5C 173.041,212.567 171.708,212.234 170.5,211.5C 170.802,208.941 170.468,206.607 169.5,204.5C 170.512,203.128 171.512,201.795 172.5,200.5 Z"/></g>
<g><path style="opacity:1" fill="#e8cb11" d="M 169.5,204.5 C 170.468,206.607 170.802,208.941 170.5,211.5C 168.901,211.768 167.568,211.434 166.5,210.5C 167.5,208.5 168.5,206.5 169.5,204.5 Z"/></g>
<g><path style="opacity:1" fill="#0f9e9e" d="M 226.5,207.5 C 226.833,207.5 227.167,207.5 227.5,207.5C 227.5,209.5 227.5,211.5 227.5,213.5C 224.083,220.585 218.749,225.585 211.5,228.5C 192.167,228.5 172.833,228.5 153.5,228.5C 169.334,227.181 185.334,226.014 201.5,225C 208.427,223.788 214.26,220.621 219,215.5C 220.812,213.696 220.646,212.696 218.5,212.5C 221.47,211.347 224.137,209.68 226.5,207.5 Z"/></g>
<g><path style="opacity:1" fill="#eef4f5" d="M 227.5,213.5 C 227.5,218.5 227.5,223.5 227.5,228.5C 222.167,228.5 216.833,228.5 211.5,228.5C 218.749,225.585 224.083,220.585 227.5,213.5 Z"/></g>
<g><path style="opacity:1" fill="#e9edef" d="M -0.5,213.5 C 2.85859,220.192 7.85859,225.192 14.5,228.5C 9.5,228.5 4.5,228.5 -0.5,228.5C -0.5,223.5 -0.5,218.5 -0.5,213.5 Z"/></g>
</svg>
